<svg aria-hidden="true" style="position:absolute;width:0;height:0;overflow:hidden" xmlns="http://www.w3.org/2000/svg">
  <defs>
    <symbol id="google-play" viewBox="0 0 32 32">
      <path style="fill:var(--color1, #000)" d="M32 16c0 8.837-7.163 16-16 16S0 24.837 0 16 7.163 0 16 0s16 7.163 16 16z"/>
      <path fill="#fff" style="fill:var(--color2, #fff)" d="M10.623 20.922c0 .501.425.911.947.911h1.082v2.58c0 .654.545 1.187 1.214 1.187a1.2 1.2 0 0 0 1.214-1.187v-2.582h1.889v2.58c0 .654.545 1.187 1.214 1.187a1.2 1.2 0 0 0 1.214-1.187v-2.58h1.082c.522 0 .947-.409.947-.911v-8.468H10.623v8.47zm7.938-12.858.998-1.393c.058-.081.044-.191-.033-.244-.078-.051-.189-.026-.247.056l-1.036 1.448c-.682-.259-1.443-.403-2.241-.403s-1.558.144-2.241.403l-1.036-1.446c-.058-.081-.169-.109-.247-.056-.078.051-.091.159-.033.244l.998 1.393c-1.587.711-2.698 2.059-2.841 3.634h10.803c-.147-1.577-1.26-2.925-2.845-3.636zm-4.839 2.196c-.118 0-.234-.034-.332-.097s-.175-.153-.22-.259a.56.56 0 0 1 .13-.628.616.616 0 0 1 .919.087.567.567 0 0 1 .101.32c0 .153-.064.299-.176.407s-.264.169-.422.169zm4.632 0c-.118 0-.234-.034-.332-.097s-.175-.153-.22-.259a.56.56 0 0 1 .13-.628.62.62 0 0 1 .652-.125c.109.044.203.117.268.212s.101.206.101.32c0 .153-.064.299-.176.407s-.264.169-.422.169zm4.966 2.158a1.2 1.2 0 0 0-1.214 1.187v4.637c0 .654.545 1.187 1.214 1.187a1.2 1.2 0 0 0 1.214-1.187v-4.639c.002-.656-.54-1.185-1.214-1.185zm-14.64 0a1.2 1.2 0 0 0-1.214 1.187v4.637c0 .654.545 1.187 1.214 1.187a1.2 1.2 0 0 0 1.214-1.187v-4.639c0-.656-.545-1.185-1.214-1.185z"/>
    </symbol>
    <symbol id="app-store" viewBox="0 0 32 32">
      <path style="fill:var(--color1, #000)" d="M32 16c0 8.837-7.163 16-16 16S0 24.837 0 16 7.163 0 16 0s16 7.163 16 16z"/>
      <path fill="#fff" style="fill:var(--color2, #fff)" d="M19.884 10.667c-1.68 0-2.39.807-3.561.807-1.2 0-2.115-.802-3.571-.802-1.425 0-2.945.876-3.91 2.369-1.355 2.105-1.125 6.069 1.07 9.446.785 1.209 1.834 2.565 3.209 2.579h.025c1.195 0 1.55-.788 3.195-.797h.025c1.62 0 1.945.793 3.136.793h.025c1.375-.015 2.48-1.517 3.265-2.721.565-.866.775-1.301 1.209-2.281-3.175-1.214-3.685-5.746-.545-7.483-.959-1.208-2.305-1.908-3.575-1.908l.004-.002zM19.699 6.4c-.967.065-2.096.67-2.757 1.459-.6.716-1.093 1.778-.9 2.807h.077c1.03 0 2.085-.609 2.7-1.39.593-.743 1.043-1.796.879-2.877z"/>
    </symbol>
  </defs>
</svg>