<svg aria-hidden="true" style="position: absolute; width: 0; height: 0; overflow: hidden;" version="1.1" xmlns="http://www.w3.org/2000/svg" xmlns:xlink="http://www.w3.org/1999/xlink">
<defs>
<symbol id="icon-menu-close" viewBox="0 0 32 32">
<path fill="#fff" style="fill: var(--color1, #fff)" d="M23.884 6.706l-7.884 7.884-7.884-7.884c-0.19-0.174-0.439-0.267-0.696-0.261s-0.502 0.11-0.684 0.292c-0.182 0.182-0.286 0.427-0.292 0.684s0.088 0.506 0.261 0.696l7.88 7.884-7.882 7.882c-0.096 0.092-0.173 0.202-0.226 0.324s-0.081 0.253-0.083 0.386 0.023 0.265 0.073 0.388c0.050 0.123 0.124 0.235 0.218 0.329s0.206 0.169 0.329 0.219 0.255 0.075 0.388 0.074c0.133-0.002 0.264-0.029 0.386-0.082s0.232-0.13 0.324-0.226l7.886-7.882 7.884 7.884c0.19 0.174 0.439 0.267 0.696 0.262s0.502-0.11 0.684-0.292c0.182-0.182 0.286-0.427 0.292-0.684s-0.088-0.506-0.262-0.696l-7.884-7.884 7.884-7.886c0.096-0.092 0.173-0.202 0.226-0.324s0.081-0.253 0.083-0.386c0.002-0.133-0.023-0.265-0.073-0.388s-0.124-0.235-0.218-0.329c-0.094-0.094-0.206-0.169-0.329-0.219s-0.255-0.075-0.388-0.074-0.264 0.029-0.386 0.082c-0.122 0.053-0.232 0.13-0.324 0.226v0.002z"></path>
</symbol>
<symbol id="icon-downloads" viewBox="0 0 32 32">
<path fill="#fff" style="fill: var(--color1, #fff)" d="M13.5 0h5c0.831 0 1.5 0.669 1.5 1.5v10.5h5.481c1.112 0 1.669 1.344 0.881 2.131l-9.506 9.513c-0.469 0.469-1.238 0.469-1.706 0l-9.519-9.513c-0.787-0.787-0.231-2.131 0.881-2.131h5.488v-10.5c0-0.831 0.669-1.5 1.5-1.5zM32 23.5v7c0 0.831-0.669 1.5-1.5 1.5h-29c-0.831 0-1.5-0.669-1.5-1.5v-7c0-0.831 0.669-1.5 1.5-1.5h9.169l3.062 3.063c1.256 1.256 3.281 1.256 4.538 0l3.062-3.063h9.169c0.831 0 1.5 0.669 1.5 1.5zM24.25 29c0-0.688-0.563-1.25-1.25-1.25s-1.25 0.563-1.25 1.25c0 0.688 0.563 1.25 1.25 1.25s1.25-0.563 1.25-1.25zM28.25 29c0-0.688-0.563-1.25-1.25-1.25s-1.25 0.563-1.25 1.25c0 0.688 0.563 1.25 1.25 1.25s1.25-0.563 1.25-1.25z"></path>
</symbol>
<symbol id="icon-size" viewBox="0 0 32 32">
<path fill="#fff" style="fill: var(--color1, #fff)" d="M26.806 25.481c-0.038 0.681-0.335 1.321-0.83 1.789s-1.151 0.729-1.833 0.729h-16.288c-0.682 0-1.337-0.261-1.833-0.729s-0.792-1.109-0.83-1.789l-1.037-18.667c-0.020-0.362 0.034-0.724 0.158-1.065s0.317-0.652 0.567-0.915c0.249-0.263 0.549-0.473 0.882-0.617s0.692-0.217 1.054-0.218h18.363c0.363 0 0.721 0.074 1.055 0.217s0.633 0.353 0.883 0.617 0.442 0.575 0.567 0.916c0.125 0.341 0.179 0.703 0.159 1.065l-1.037 18.667zM22.829 11.853c0.547-0.36 0.684-1.074 0.235-1.539-0.761-0.785-1.651-1.435-2.63-1.921-1.36-0.675-2.854-1.036-4.372-1.058-1.519-0.025-3.025 0.29-4.407 0.921-0.996 0.455-1.908 1.077-2.697 1.837-0.465 0.451-0.353 1.168 0.181 1.545l2.875 2.031c0.533 0.377 1.285 0.255 1.838-0.097 0.143-0.091 0.291-0.171 0.445-0.241 0.491-0.224 1.023-0.343 1.563-0.349l2.262-2.601c0.116-0.133 0.28-0.215 0.457-0.228 0.087-0.006 0.175 0.005 0.258 0.033s0.16 0.072 0.226 0.129c0.066 0.057 0.12 0.127 0.159 0.206s0.062 0.164 0.068 0.251c0.006 0.087-0.005 0.175-0.033 0.258s-0.072 0.16-0.129 0.226l-1.755 2.017c0.238 0.098 0.465 0.221 0.677 0.365 0.54 0.369 1.287 0.513 1.833 0.153l2.945-1.939z"></path>
</symbol>
<symbol id="icon-language" viewBox="0 0 32 32">
<path fill="#fff" style="fill: var(--color1, #fff)" d="M16 29.333c-1.822 0-3.544-0.35-5.167-1.051s-3.039-1.655-4.249-2.867c-1.212-1.211-2.167-2.627-2.867-4.249s-1.051-3.344-1.051-5.167c0-1.844 0.35-3.572 1.051-5.183s1.655-3.023 2.867-4.233c1.211-1.212 2.627-2.168 4.249-2.868s3.344-1.049 5.167-1.049c1.844 0 3.572 0.35 5.183 1.049s3.023 1.656 4.233 2.868c1.212 1.211 2.167 2.622 2.867 4.233s1.051 3.338 1.051 5.183c0 1.822-0.35 3.544-1.051 5.167s-1.655 3.039-2.867 4.249c-1.211 1.212-2.622 2.167-4.233 2.867s-3.338 1.051-5.183 1.051zM16 26.6c0.578-0.8 1.078-1.633 1.5-2.5s0.767-1.789 1.033-2.767h-5.067c0.267 0.978 0.611 1.9 1.033 2.767s0.922 1.7 1.5 2.5zM12.534 26.067c-0.4-0.733-0.75-1.495-1.049-2.284s-0.551-1.605-0.751-2.449h-3.933c0.644 1.111 1.45 2.078 2.416 2.9s2.073 1.433 3.317 1.833zM19.467 26.067c1.244-0.4 2.35-1.011 3.316-1.833s1.773-1.789 2.417-2.9h-3.933c-0.2 0.844-0.45 1.661-0.749 2.449s-0.651 1.551-1.051 2.284zM5.667 18.667h4.533c-0.067-0.444-0.117-0.884-0.151-1.317s-0.049-0.883-0.049-1.349c0-0.467 0.016-0.916 0.049-1.349s0.084-0.873 0.151-1.317h-4.533c-0.111 0.444-0.195 0.884-0.251 1.317s-0.083 0.883-0.083 1.349c0 0.467 0.028 0.916 0.083 1.349s0.14 0.873 0.251 1.317zM12.867 18.667h6.267c0.067-0.444 0.117-0.884 0.151-1.317 0.033-0.433 0.049-0.883 0.049-1.349s-0.016-0.916-0.049-1.349c-0.034-0.434-0.084-0.873-0.151-1.317h-6.267c-0.067 0.444-0.116 0.884-0.149 1.317s-0.051 0.883-0.051 1.349c0 0.467 0.017 0.916 0.051 1.349s0.083 0.873 0.149 1.317zM21.8 18.667h4.533c0.111-0.444 0.195-0.884 0.251-1.317s0.083-0.883 0.083-1.349c0-0.467-0.028-0.916-0.083-1.349s-0.14-0.873-0.251-1.317h-4.533c0.067 0.444 0.116 0.884 0.149 1.317 0.034 0.433 0.051 0.883 0.051 1.349s-0.017 0.916-0.051 1.349c-0.033 0.434-0.083 0.873-0.149 1.317zM21.267 10.667h3.933c-0.644-1.111-1.45-2.078-2.417-2.9s-2.072-1.433-3.316-1.833c0.4 0.733 0.75 1.494 1.051 2.283s0.549 1.606 0.749 2.451zM13.467 10.667h5.067c-0.267-0.978-0.611-1.9-1.033-2.767s-0.922-1.7-1.5-2.5c-0.578 0.8-1.078 1.633-1.5 2.5s-0.767 1.789-1.033 2.767zM6.8 10.667h3.933c0.2-0.844 0.45-1.661 0.751-2.451s0.649-1.549 1.049-2.283c-1.244 0.4-2.35 1.011-3.317 1.833s-1.772 1.789-2.416 2.9z"></path>
</symbol>
<symbol id="icon-oc" viewBox="0 0 32 32">
<path fill="#fff" style="fill: var(--color1, #fff)" d="M28.005 2.672h-24c-0.707 0.002-1.384 0.284-1.883 0.783s-0.781 1.177-0.783 1.883v16c0.002 0.707 0.284 1.384 0.783 1.883s1.177 0.781 1.883 0.783h9.333v2.667h-2.667v2.667h10.667v-2.667h-2.667v-2.667h9.333c0.707-0.002 1.384-0.284 1.883-0.783s0.781-1.177 0.783-1.883v-16c-0.002-0.707-0.284-1.384-0.783-1.883s-1.177-0.781-1.883-0.783zM14.341 18.227h-0.001l-6.333-6.333 1.887-1.884 4.448 4.448 7.78-7.781 1.887 1.887-9.667 9.664z"></path>
</symbol>
<symbol id="icon-data" viewBox="0 0 32 32">
<path fill="#fff" style="fill: var(--color1, #fff)" d="M28 26.667v-18.667c0-1.471-1.196-2.667-2.667-2.667h-2.667v-2.667h-2.667v2.667h-8v-2.667h-2.667v2.667h-2.667c-1.471 0-2.667 1.196-2.667 2.667v18.667c0 1.471 1.196 2.667 2.667 2.667h18.667c1.471 0 2.667-1.196 2.667-2.667zM12 24h-2.667v-2.667h2.667v2.667zM12 18.667h-2.667v-2.667h2.667v2.667zM17.333 24h-2.667v-2.667h2.667v2.667zM17.333 18.667h-2.667v-2.667h2.667v2.667zM22.667 24h-2.667v-2.667h2.667v2.667zM22.667 18.667h-2.667v-2.667h2.667v2.667zM25.333 12h-18.667v-2.667h18.667v2.667z"></path>
</symbol>
<symbol id="icon-author" viewBox="0 0 32 32">
<path fill="#fff" style="fill: var(--color1, #fff)" d="M26.749 24.93c1.436-1.728 2.435-3.776 2.912-5.972s0.418-4.474-0.171-6.642c-0.59-2.168-1.693-4.162-3.216-5.814s-3.422-2.912-5.535-3.675c-2.113-0.763-4.379-1.005-6.606-0.707s-4.349 1.129-6.187 2.421-3.338 3.008-4.373 5.002c-1.035 1.994-1.574 4.209-1.572 6.455 0.001 3.266 1.152 6.428 3.251 8.93l-0.020 0.017c0.070 0.084 0.15 0.156 0.222 0.239 0.090 0.103 0.187 0.2 0.28 0.3 0.28 0.304 0.568 0.596 0.87 0.87 0.092 0.084 0.187 0.162 0.28 0.242 0.32 0.276 0.649 0.538 0.99 0.782 0.044 0.030 0.084 0.069 0.128 0.1v-0.012c2.342 1.648 5.136 2.533 8 2.533s5.658-0.885 8-2.533v0.012c0.044-0.031 0.083-0.070 0.128-0.1 0.34-0.245 0.67-0.506 0.99-0.782 0.093-0.080 0.188-0.159 0.28-0.242 0.302-0.275 0.59-0.566 0.87-0.87 0.093-0.1 0.189-0.197 0.28-0.3 0.071-0.083 0.152-0.155 0.222-0.24l-0.022-0.016zM16 8c0.89 0 1.76 0.264 2.5 0.758s1.317 1.197 1.657 2.020 0.43 1.727 0.256 2.6c-0.174 0.873-0.602 1.675-1.232 2.304s-1.431 1.058-2.304 1.232c-0.873 0.174-1.778 0.084-2.6-0.256s-1.525-0.917-2.020-1.657c-0.495-0.74-0.758-1.61-0.758-2.5 0-1.193 0.474-2.338 1.318-3.182s1.988-1.318 3.182-1.318zM8.007 24.93c0.017-1.313 0.551-2.567 1.485-3.489s2.194-1.44 3.508-1.441h6c1.313 0.001 2.573 0.518 3.508 1.441s1.468 2.176 1.485 3.489c-2.193 1.976-5.041 3.070-7.993 3.070s-5.8-1.094-7.993-3.070z"></path>
</symbol>
<symbol id="icon-license" viewBox="0 0 25 32">
<path fill="#fff" style="fill: var(--color1, #fff)" d="M7.572 18.876v-1.876h2v1.876c0 0.164 0.020 0.327 0.060 0.486l0.8 3.196-1.86 1.24-1.86-1.24 0.8-3.196c0.040-0.159 0.060-0.322 0.060-0.486z"></path>
<path fill="#fff" style="fill: var(--color1, #fff)" d="M15.158 0h-10.586c-1.061 0-2.078 0.421-2.828 1.172s-1.172 1.768-1.172 2.828v24c0 1.061 0.421 2.078 1.172 2.828s1.768 1.172 2.828 1.172h16c1.061 0 2.078-0.421 2.828-1.172s1.172-1.768 1.172-2.828v-18.586c-0-0.53-0.211-1.039-0.586-1.414l-7.414-7.414c-0.375-0.375-0.884-0.586-1.414-0.586v0zM15.571 7v-4l6 6h-4c-0.53 0-1.039-0.211-1.414-0.586s-0.586-0.884-0.586-1.414zM7.571 6v-2h-2v-2h3v2h2v2h-2v2h2v2h-2v2h2v2h-3v-2h-2v-2h2v-2h-2v-2h2zM7.571 15h2c0.53 0 1.039 0.211 1.414 0.586s0.586 0.884 0.586 1.414v1.876l0.8 3.198c0.1 0.4 0.073 0.821-0.076 1.206s-0.413 0.714-0.756 0.942l-1.86 1.24c-0.328 0.219-0.714 0.336-1.109 0.336s-0.781-0.117-1.109-0.336l-1.86-1.24c-0.343-0.229-0.607-0.558-0.755-0.943s-0.175-0.805-0.075-1.206l0.8-3.198v-1.876c0-0.53 0.211-1.039 0.586-1.414s0.884-0.586 1.414-0.586z"></path>
</symbol>
<symbol id="icon-app" viewBox="0 0 32 32">
<path fill="#fff" style="fill: var(--color1, #fff)" d="M26.706 9.022c0.187 0.188 0.294 0.441 0.294 0.706v19.272c0 0.553-0.447 1-1 1h-20c-0.553 0-1-0.447-1-1v-26c0-0.553 0.447-1 1-1h13.272c0.266 0 0.522 0.106 0.709 0.294l6.725 6.728zM24.694 10.188l-5.881-5.881v5.881h5.881zM10 15.063c-0.066 0-0.13 0.026-0.177 0.073s-0.073 0.11-0.073 0.177v1.5c0 0.066 0.026 0.13 0.073 0.177s0.11 0.073 0.177 0.073h12c0.066 0 0.13-0.026 0.177-0.073s0.073-0.11 0.073-0.177v-1.5c0-0.066-0.026-0.13-0.073-0.177s-0.11-0.073-0.177-0.073h-12zM10 19.312c-0.066 0-0.13 0.026-0.177 0.073s-0.073 0.11-0.073 0.177v1.5c0 0.066 0.026 0.13 0.073 0.177s0.11 0.073 0.177 0.073h5.75c0.066 0 0.13-0.026 0.177-0.073s0.073-0.11 0.073-0.177v-1.5c0-0.066-0.026-0.13-0.073-0.177s-0.11-0.073-0.177-0.073h-5.75z"></path>
</symbol>
<symbol id="icon-file-download" viewBox="0 0 24 32">
<path fill="#fff" style="fill: var(--color1, #fff)" d="M14.088 8.425v-8.425h-12.579c-0.836 0-1.509 0.663-1.509 1.487v28.743c0 0.824 0.673 1.487 1.509 1.487h21.132c0.836 0 1.509-0.663 1.509-1.487v-20.318h-8.553c-0.83 0-1.509-0.669-1.509-1.487zM18.896 21.518l-6.064 5.928c-0.418 0.409-1.094 0.409-1.512 0l-6.064-5.928c-0.638-0.624-0.191-1.695 0.708-1.695h4.099v-4.956c0-0.548 0.45-0.991 1.006-0.991h2.013c0.556 0 1.006 0.444 1.006 0.991v4.956h4.099c0.898 0 1.346 1.071 0.709 1.695zM23.711 6.504l-6.157-6.071c-0.283-0.279-0.667-0.434-1.069-0.434h-0.384v7.929h8.050v-0.378c0-0.39-0.157-0.768-0.44-1.047z"></path>
</symbol>
<symbol id="icon-menu" viewBox="0 0 52 32">
<path fill="none" stroke="#fff" style="stroke: var(--color1, #fff)" stroke-linejoin="miter" stroke-linecap="round" stroke-miterlimit="4" stroke-width="4" d="M2 2h48M2 16h48M2 30h48"></path>
</symbol>
<symbol id="icon-twitter" viewBox="0 0 32 32">
<path fill="#fff" style="fill: var(--color1, #fff)" d="M26.4 16c0 5.744-4.656 10.4-10.4 10.4s-10.4-4.656-10.4-10.4c0-5.744 4.656-10.4 10.4-10.4s10.4 4.656 10.4 10.4z"></path>
<path fill="#000" style="fill: var(--color2, #000)" d="M15.84 0.64c-8.395 0-15.2 6.805-15.2 15.2s6.805 15.2 15.2 15.2c8.395 0 15.2-6.805 15.2-15.2s-6.805-15.2-15.2-15.2zM22.023 13.091c0.006 0.13 0.008 0.26 0.008 0.386 0 3.958-3.010 8.52-8.517 8.52-1.627 0.003-3.221-0.465-4.589-1.346 0.233 0.029 0.472 0.040 0.714 0.040 1.403 0 2.693-0.477 3.718-1.281-0.624-0.012-1.229-0.219-1.73-0.591s-0.874-0.892-1.066-1.486c0.448 0.085 0.91 0.067 1.351-0.052-0.678-0.137-1.287-0.504-1.725-1.039s-0.677-1.205-0.677-1.896v-0.036c0.404 0.223 0.866 0.359 1.357 0.375-0.635-0.423-1.085-1.072-1.257-1.816s-0.054-1.525 0.331-2.184c0.752 0.925 1.69 1.681 2.753 2.22s2.227 0.849 3.418 0.91c-0.151-0.642-0.086-1.317 0.185-1.918s0.734-1.096 1.316-1.408c0.582-0.312 1.25-0.422 1.901-0.314s1.248 0.427 1.699 0.909c0.67-0.133 1.312-0.378 1.9-0.727-0.223 0.694-0.691 1.283-1.316 1.658 0.594-0.072 1.173-0.231 1.719-0.473-0.401 0.602-0.907 1.126-1.493 1.55v0z"></path>
</symbol>
<symbol id="icon-linkedin" viewBox="0 0 32 32">
<path fill="#fff" style="fill: var(--color1, #fff)" d="M26.4 16c0 5.744-4.656 10.4-10.4 10.4s-10.4-4.656-10.4-10.4c0-5.744 4.656-10.4 10.4-10.4s10.4 4.656 10.4 10.4z"></path>
<path fill="#000" style="fill: var(--color2, #000)" d="M15.84 0.64c-8.395 0-15.2 6.805-15.2 15.2s6.805 15.2 15.2 15.2c8.395 0 15.2-6.805 15.2-15.2s-6.805-15.2-15.2-15.2zM12.119 22.14h-3.078v-9.905h3.078v9.905zM10.561 11.019c-0.972 0-1.601-0.689-1.601-1.541 0-0.869 0.648-1.537 1.64-1.537s1.601 0.668 1.62 1.537c0 0.852-0.627 1.541-1.659 1.541zM23.361 22.14h-3.078v-5.489c0-1.278-0.446-2.145-1.56-2.145-0.85 0-1.355 0.587-1.579 1.153-0.082 0.201-0.103 0.486-0.103 0.77v5.711h-3.080v-6.745c0-1.237-0.040-2.27-0.081-3.16h2.674l0.141 1.376h0.062c0.405-0.646 1.398-1.599 3.059-1.599 2.025 0 3.544 1.357 3.544 4.273v5.857z"></path>
</symbol>
  <symbol id="icon-facebook" viewBox="0 0 40 40">
      <circle cx="20" cy="20" r="18" fill="transparent" />
      <path d="M24.5007 14.1298H21.6448C21.3063 14.1298 20.9303 14.5751 20.9303 15.1669V17.2292H24.5027L23.9624 20.1702H20.9303V28.9993H17.5598V20.1702H14.502V17.2292H17.5598V15.4994C17.5598 13.0175 19.2816 11.0007 21.6448 11.0007H24.5007V14.1298Z" fill="white" />
        </symbol>
        <symbol id="icon-facebook-hovered" viewBox="0 0 40 40">
      <path d="M24.5006 14.6298H25.0006V14.1298V11.0007V10.5007H24.5006H21.6447C18.9529 10.5007 17.0597 12.797 17.0597 15.4994V16.7292H14.5019H14.0019V17.2292V20.1702V20.6702H14.5019H17.0597V28.9993V29.4993H17.5597H20.9302H21.4302V28.9993V20.6702H23.9623H24.3788L24.4541 20.2606L24.9944 17.3195L25.1028 16.7292H24.5026H21.4302V15.1669C21.4302 14.9752 21.4916 14.8202 21.5633 14.7227C21.6145 14.6531 21.6518 14.6342 21.6612 14.6298H24.5006ZM1.5 20C1.5 9.7826 9.7826 1.5 20 1.5C30.2174 1.5 38.5 9.7826 38.5 20C38.5 30.2174 30.2174 38.5 20 38.5C9.7826 38.5 1.5 30.2174 1.5 20Z" fill="#06071b" />
      <path d="M24.5007 14.1298H21.6448C21.3063 14.1298 20.9303 14.5751 20.9303 15.1669V17.2292H24.5027L23.9624 20.1702H20.9303V28.9993H17.5598V20.1702H14.502V17.2292H17.5598V15.4994C17.5598 13.0175 19.2816 11.0007 21.6448 11.0007H24.5007V14.1298Z" stroke="transparent" stroke-width="2" />
    </symbol>
    <symbol id="icon-twitter-hovered" viewBox="0 0 40 40">
    <circle cx="20" cy="20" r="13" fill="white"/>
<path d="M19.8 0.800049C9.30651 0.800049 0.800049 9.30651 0.800049 19.8C0.800049 30.2936 9.30651 38.8 19.8 38.8C30.2936 38.8 38.8 30.2936 38.8 19.8C38.8 9.30651 30.2936 0.800049 19.8 0.800049ZM27.5287 16.3642C27.5366 16.5265 27.5386 16.6888 27.5386 16.8471C27.5386 21.795 23.7762 27.497 16.8927 27.497C14.8587 27.5004 12.867 26.9162 11.157 25.8147C11.448 25.8504 11.7468 25.8642 12.0496 25.8642C13.8032 25.8642 15.4162 25.2685 16.6967 24.2631C15.9164 24.2477 15.1602 23.9893 14.5337 23.5239C13.9072 23.0584 13.4415 22.4091 13.2015 21.6664C13.7619 21.773 14.3392 21.7506 14.8897 21.6011C14.0427 21.4298 13.2811 20.9709 12.7338 20.3021C12.1866 19.6333 11.8876 18.7958 11.8873 17.9317V17.8862C12.392 18.1653 12.9699 18.3355 13.5835 18.3553C12.7894 17.8267 12.2273 17.0147 12.0121 16.0854C11.7969 15.1561 11.9448 14.1797 12.4257 13.3559C13.3657 14.5117 14.538 15.4573 15.8666 16.1313C17.1952 16.8053 18.6506 17.1928 20.1385 17.2687C19.9493 16.4658 20.0307 15.6228 20.3701 14.8709C20.7094 14.1191 21.2876 13.5003 22.0149 13.111C22.7421 12.7216 23.5776 12.5835 24.3915 12.7179C25.2054 12.8524 25.952 13.252 26.5154 13.8546C27.3529 13.6889 28.156 13.3817 28.8904 12.9462C28.6112 13.8133 28.0268 14.5497 27.2457 15.0184C27.9876 14.929 28.712 14.7296 29.395 14.4266C28.8933 15.1785 28.2613 15.8347 27.5287 16.3642Z" fill="url(#paint0_linear_135_698)"/>
<linearGradient id="paint0_linear_135_698" x1="0.0430177" y1="14.5222" x2="34.7948" y2="14.5389" gradientUnits="userSpaceOnUse">
    </symbol>
</defs>
</svg>
